# xmcd
#
# Track frame offsets:
# 150
# 10674
# 33421
# 52267
# 81273
# 107490
# 120711
# 144909
# 169731
# 184680
# 197887
# 211729
# 226154
# 260293
# 281485
# 317408
#
# Disc length: 4422 seconds
#
#
# Revision: 0
# Processed by: cddbd v1.5.2PL0 Copyright (c) Steve Scherf et al.
# Submitted via: FreeRIP 2.945 
#
DISCID=d2114410
DTITLE=Various Artist - Ten Fat Years (Disk 1)
DYEAR=2000
DGENRE=Blues
TTITLE0=The Right Royal - Intro
TTITLE1=The High Fives - Mojo Boogie
TTITLE2=Little Joey's Jumpin' Jive - It's Too Late Brother
TTITLE3=Chicken Shack (Part 1) - Route 66
TTITLE4=The Electromatics - Greasy Gravy
TTITLE5=The Breeze Kings - Teenie Weenie Bit
TTITLE6=The Kaiser Blades - Fat Back and Corn Liquor
TTITLE7=Interstate Brickface - Is You Or Is You Ain't My Baby
TTITLE8=Fontaine Blues - The Ice In Me
TTITLE9=Sean Costello - That Old Black Majic
TTITLE10=Johnny Knox Trio - Done Me Wrong
TTITLE11=The Blue Barons - Who Stole My Monkey
TTITLE12=Ron Cooley and The Hard Times - Dresser Drawers
TTITLE13=Crawdad Tails - Scream
TTITLE14=Blues Cat - Whipping Post
TTITLE15=The Neighorhood Toughs - Fifteen Finger Boogie
EXTD=Live at Fat Matt's Rib Shack\nAtlanta, Georgia\nSep 10-16, 2000
EXTT0=
EXTT1=
EXTT2=
EXTT3=
EXTT4=
EXTT5=
EXTT6=
EXTT7=
EXTT8=
EXTT9=
EXTT10=
EXTT11=
EXTT12=
EXTT13=
EXTT14=
EXTT15=
PLAYORDER=
